<svg width="57" height="50" viewBox="0 0 57 50" fill="none" xmlns="http://www.w3.org/2000/svg">
<path d="M12.94 38V33.644H19.384C21.016 33.644 22.444 33.308 23.668 32.636C24.892 31.94 25.84 30.968 26.512 29.72C27.208 28.472 27.556 26.996 27.556 25.292C27.556 23.636 27.208 22.196 26.512 20.972C25.816 19.724 24.856 18.764 23.632 18.092C22.408 17.396 20.992 17.048 19.384 17.048H12.832V12.692H19.456C21.328 12.692 23.056 13.004 24.64 13.628C26.248 14.252 27.64 15.14 28.816 16.292C30.016 17.42 30.94 18.752 31.588 20.288C32.26 21.824 32.596 23.504 32.596 25.328C32.596 27.152 32.26 28.844 31.588 30.404C30.94 31.94 30.028 33.284 28.852 34.436C27.676 35.564 26.284 36.44 24.676 37.064C23.092 37.688 21.376 38 19.528 38H12.94ZM9.592 38V12.692H14.488V38H9.592ZM36.4865 38V12.692H41.3825V38H36.4865Z" fill="url(#paint0_linear_31_277)"/>
<mask id="path-2-inside-1_31_277" fill="white">
<path d="M0 8C0 3.58172 3.58172 0 8 0H42C46.4183 0 50 3.58172 50 8V42C50 46.4183 46.4183 50 42 50H8C3.58172 50 0 46.4183 0 42V8Z"/>
</mask>
<path d="M0 8C0 1.92487 4.92487 -3 11 -3H39C45.0751 -3 50 1.92487 50 8C50 5.23858 46.4183 3 42 3H8C3.58172 3 0 5.23858 0 8ZM50 42C50 48.0751 45.0751 53 39 53H11C4.92487 53 0 48.0751 0 42C0 44.7614 3.58172 47 8 47H42C46.4183 47 50 44.7614 50 42ZM0 50V0V50ZM50 0V50V0Z" fill="#0AEEBA" mask="url(#path-2-inside-1_31_277)"/>
<defs>
<linearGradient id="paint0_linear_31_277" x1="19.5" y1="15.625" x2="37.625" y2="41.25" gradientUnits="userSpaceOnUse">
<stop stop-color="#009C63"/>
<stop offset="1" stop-color="#088BA8"/>
</linearGradient>
</defs>
</svg>
