<svg width="15" height="13" viewBox="0 0 15 13" fill="none" xmlns="http://www.w3.org/2000/svg">
<path d="M10.4844 2.11037L12.8333 4.40105C12.9323 4.49756 12.9323 4.65501 12.8333 4.75151L7.14583 10.2979L4.72917 10.5595C4.40625 10.595 4.13281 10.3284 4.16927 10.0135L4.4375 7.65677L10.125 2.11037C10.224 2.01387 10.3854 2.01387 10.4844 2.11037ZM14.7031 1.52881L13.4323 0.28951C13.0365 -0.0965032 12.3932 -0.0965032 11.9948 0.28951L11.0729 1.18851C10.974 1.28502 10.974 1.44247 11.0729 1.53897L13.4219 3.82965C13.5208 3.92616 13.6823 3.92616 13.7813 3.82965L14.7031 2.93065C15.099 2.5421 15.099 1.91483 14.7031 1.52881ZM10 8.78941V11.3747H1.66667V3.2481H7.65104C7.73438 3.2481 7.8125 3.21508 7.8724 3.15921L8.91406 2.14339C9.11198 1.95038 8.97135 1.62278 8.69271 1.62278H1.25C0.559896 1.62278 0 2.16878 0 2.84177V11.781C0 12.454 0.559896 13 1.25 13H10.4167C11.1068 13 11.6667 12.454 11.6667 11.781V7.77359C11.6667 7.50186 11.3307 7.36726 11.1328 7.55773L10.0911 8.57355C10.0339 8.63196 10 8.70815 10 8.78941Z" fill="white"/>
</svg>
