<svg width="17" height="19" viewBox="0 0 17 19" fill="none" xmlns="http://www.w3.org/2000/svg">
<path d="M1.21429 17.2188C1.21429 17.6912 1.40619 18.1442 1.74777 18.4783C2.08935 18.8123 2.55264 19 3.03571 19H13.9643C14.4474 19 14.9106 18.8123 15.2522 18.4783C15.5938 18.1442 15.7857 17.6912 15.7857 17.2188V4.75H1.21429V17.2188ZM11.5357 7.71875C11.5357 7.56128 11.5997 7.41026 11.7135 7.29891C11.8274 7.18756 11.9818 7.125 12.1429 7.125C12.3039 7.125 12.4583 7.18756 12.5722 7.29891C12.686 7.41026 12.75 7.56128 12.75 7.71875V16.0312C12.75 16.1887 12.686 16.3397 12.5722 16.4511C12.4583 16.5624 12.3039 16.625 12.1429 16.625C11.9818 16.625 11.8274 16.5624 11.7135 16.4511C11.5997 16.3397 11.5357 16.1887 11.5357 16.0312V7.71875ZM7.89286 7.71875C7.89286 7.56128 7.95682 7.41026 8.07069 7.29891C8.18455 7.18756 8.33898 7.125 8.5 7.125C8.66102 7.125 8.81545 7.18756 8.92931 7.29891C9.04318 7.41026 9.10714 7.56128 9.10714 7.71875V16.0312C9.10714 16.1887 9.04318 16.3397 8.92931 16.4511C8.81545 16.5624 8.66102 16.625 8.5 16.625C8.33898 16.625 8.18455 16.5624 8.07069 16.4511C7.95682 16.3397 7.89286 16.1887 7.89286 16.0312V7.71875ZM4.25 7.71875C4.25 7.56128 4.31397 7.41026 4.42783 7.29891C4.54169 7.18756 4.69612 7.125 4.85714 7.125C5.01817 7.125 5.1726 7.18756 5.28646 7.29891C5.40032 7.41026 5.46429 7.56128 5.46429 7.71875V16.0312C5.46429 16.1887 5.40032 16.3397 5.28646 16.4511C5.1726 16.5624 5.01817 16.625 4.85714 16.625C4.69612 16.625 4.54169 16.5624 4.42783 16.4511C4.31397 16.3397 4.25 16.1887 4.25 16.0312V7.71875ZM16.3929 1.18751H11.8393L11.4826 0.493561C11.407 0.345203 11.2906 0.220407 11.1465 0.133214C11.0024 0.04602 10.8362 -0.000112366 10.6667 6.50628e-06H6.32946C6.16037 -0.000629197 5.99451 0.0453311 5.85089 0.132622C5.70726 0.219913 5.59169 0.345003 5.51741 0.493561L5.16071 1.18751H0.607143C0.446119 1.18751 0.291689 1.25006 0.177828 1.36141C0.0639667 1.47276 0 1.62378 0 1.78126L0 2.96876C0 3.12623 0.0639667 3.27725 0.177828 3.3886C0.291689 3.49995 0.446119 3.56251 0.607143 3.56251H16.3929C16.5539 3.56251 16.7083 3.49995 16.8222 3.3886C16.936 3.27725 17 3.12623 17 2.96876V1.78126C17 1.62378 16.936 1.47276 16.8222 1.36141C16.7083 1.25006 16.5539 1.18751 16.3929 1.18751Z" fill="white"/>
</svg>
