<svg width="30" height="30" viewBox="0 0 30 30" fill="none" xmlns="http://www.w3.org/2000/svg">
<mask id="path-1-inside-1_87_750" fill="white">
<path d="M0 8C0 3.58172 3.58172 0 8 0H21.0323C25.4505 0 29.0323 3.58172 29.0323 8V22C29.0323 26.4183 25.4505 30 21.0323 30H7.99999C3.58171 30 0 26.4183 0 22V8Z"/>
</mask>
<path d="M0 8C0 1.92487 4.92487 -3 11 -3H18.0323C24.1074 -3 29.0323 1.92487 29.0323 8C29.0323 5.23858 25.4505 3 21.0323 3H8C3.58172 3 0 5.23858 0 8ZM29.0323 22C29.0323 28.0751 24.1074 33 18.0323 33H11C4.92487 33 0 28.0751 0 22C0 24.7614 3.58172 27 8 27H21.0323C25.4505 27 29.0323 24.7614 29.0323 22ZM0 30V0V30ZM29.0323 0V30V0Z" fill="#0AEEBA" mask="url(#path-1-inside-1_87_750)"/>
<path d="M7.678 22.22C6.46067 22.22 5.37533 21.956 4.422 21.428C3.48333 20.8853 2.74267 20.1447 2.2 19.206C1.65733 18.2673 1.386 17.204 1.386 16.016V6.534H4.378V16.104C4.378 16.7933 4.51733 17.3873 4.796 17.886C5.08933 18.3847 5.48533 18.7733 5.984 19.052C6.49733 19.316 7.062 19.448 7.678 19.448C8.30867 19.448 8.866 19.316 9.35 19.052C9.834 18.7733 10.2153 18.3847 10.494 17.886C10.7873 17.3873 10.934 16.8007 10.934 16.126V6.534H13.948V16.038C13.948 17.226 13.6767 18.2893 13.134 19.228C12.5913 20.152 11.8507 20.8853 10.912 21.428C9.988 21.956 8.91 22.22 7.678 22.22ZM21.2185 22.22C19.9718 22.22 18.9012 22.0073 18.0065 21.582C17.1265 21.1567 16.3272 20.5187 15.6085 19.668L17.5885 17.688C18.0432 18.2893 18.5712 18.7587 19.1725 19.096C19.7738 19.4187 20.5072 19.58 21.3725 19.58C22.1498 19.58 22.7658 19.426 23.2205 19.118C23.6898 18.81 23.9245 18.3847 23.9245 17.842C23.9245 17.3727 23.7925 16.9913 23.5285 16.698C23.2645 16.4047 22.9125 16.1553 22.4725 15.95C22.0472 15.7447 21.5705 15.5613 21.0425 15.4C20.5292 15.224 20.0085 15.026 19.4805 14.806C18.9672 14.586 18.4905 14.3147 18.0505 13.992C17.6252 13.6547 17.2805 13.2293 17.0165 12.716C16.7525 12.188 16.6205 11.528 16.6205 10.736C16.6205 9.79733 16.8478 8.998 17.3025 8.338C17.7572 7.678 18.3805 7.172 19.1725 6.82C19.9645 6.468 20.8592 6.292 21.8565 6.292C22.9125 6.292 23.8658 6.49 24.7165 6.886C25.5672 7.282 26.2638 7.79533 26.8065 8.426L24.8265 10.406C24.3718 9.90733 23.9025 9.54067 23.4185 9.306C22.9492 9.07133 22.4138 8.954 21.8125 8.954C21.1232 8.954 20.5805 9.086 20.1845 9.35C19.7885 9.614 19.5905 9.99533 19.5905 10.494C19.5905 10.9193 19.7225 11.264 19.9865 11.528C20.2505 11.792 20.5952 12.0193 21.0205 12.21C21.4605 12.4007 21.9372 12.584 22.4505 12.76C22.9785 12.936 23.4992 13.134 24.0125 13.354C24.5405 13.574 25.0172 13.86 25.4425 14.212C25.8825 14.564 26.2345 15.0187 26.4985 15.576C26.7625 16.1187 26.8945 16.7933 26.8945 17.6C26.8945 19.0373 26.3885 20.1667 25.3765 20.988C24.3645 21.8093 22.9785 22.22 21.2185 22.22Z" fill="url(#paint0_linear_87_750)"/>
<defs>
<linearGradient id="paint0_linear_87_750" x1="7.25" y1="9.375" x2="18.2428" y2="24.3985" gradientUnits="userSpaceOnUse">
<stop stop-color="#009C63"/>
<stop offset="1" stop-color="#088BA8"/>
</linearGradient>
</defs>
</svg>
