<?xml version="1.0" encoding="UTF-8"?>
<svg id="Camada_1" data-name="Camada 1" xmlns="http://www.w3.org/2000/svg" xmlns:xlink="http://www.w3.org/1999/xlink" viewBox="0 0 97.32 98.32">
  <defs>
    <style>
      .cls-1 {
        stroke: url(#Nova_amostra_de_gradiente_1-3);
      }

      .cls-1, .cls-2 {
        fill: none;
        stroke-miterlimit: 10;
      }

      .cls-2 {
        stroke: url(#Nova_amostra_de_gradiente_1-4);
      }

      .cls-3 {
        fill: url(#Nova_amostra_de_gradiente_1-2);
      }

      .cls-4 {
        fill: url(#Nova_amostra_de_gradiente_1);
      }
    </style>
    <linearGradient id="Nova_amostra_de_gradiente_1" data-name="Nova amostra de gradiente 1" x1="12" y1="8.01" x2="58.94" y2="89.31" gradientUnits="userSpaceOnUse">
      <stop offset="0" stop-color="#088ba8"/>
      <stop offset=".41" stop-color="#048686"/>
      <stop offset="1" stop-color="#007f50"/>
    </linearGradient>
    <linearGradient id="Nova_amostra_de_gradiente_1-2" data-name="Nova amostra de gradiente 1" x1="35.71" y1="50.63" x2="95.64" y2="50.63" xlink:href="#Nova_amostra_de_gradiente_1"/>
    <linearGradient id="Nova_amostra_de_gradiente_1-3" data-name="Nova amostra de gradiente 1" x1="0" y1="4.59" x2="9.59" y2="4.59" xlink:href="#Nova_amostra_de_gradiente_1"/>
    <linearGradient id="Nova_amostra_de_gradiente_1-4" data-name="Nova amostra de gradiente 1" x1="87.73" y1="93.73" x2="97.32" y2="93.73" xlink:href="#Nova_amostra_de_gradiente_1"/>
  </defs>
  <path class="cls-4" d="m16.97,83.87v-26.5c0-1.55,1.37-2.81,3.06-2.81h29.76c2.08,0,3.55-1.85,2.92-3.67l-1.89-5.45c-.41-1.17-1.59-1.96-2.92-1.96h-27.86c-1.69,0-3.06-1.26-3.06-2.81v-23.28c0-1.55,1.37-2.81,3.06-2.81h45.64c1.69,0,3.06-1.26,3.06-2.81v-5.51c0-1.55-1.37-2.81-3.06-2.81H7.54c-1.69,0-3.06,1.26-3.06,2.81v88.75c0,1.55,1.37,2.81,3.06,2.81h56.19c2.08,0,3.87,0,2.5-3.14l-2.18-6.51c-.41-1.17-.89-1.49-2.23-1.49H20.04c-1.69,0-3.06-1.26-3.06-2.81Z"/>
  <path class="cls-3" d="m93.94,3.45h-7.2c-.62,0-1.63.31-2.94.89-.89.4-1.59,1.18-1.89,2.13l-23.13,73.14c1.64.13,2.42.51,2.51.87l.78,3.09c-.89-3.67-1.92-7.52-3.09-11.56l-14.12-54.31c-.12-.41-.49-.7-.91-.7h-8.43c-.64,0-1.1.64-.91,1.27l22.96,78.88c.13.4.49.68.91.68h7.54c1.25,0,2.35-.82,2.74-2.04L96.68,7.29c.6-1.9-.79-3.84-2.74-3.84Z"/>
  <path class="cls-1" d="m.66,9.08C.08,6.38,1.1,3.64,3.33,2,5.93.08,9.02.52,9.51.6"/>
  <path class="cls-2" d="m96.66,89.25c.58,2.7-.44,5.43-2.66,7.08-2.61,1.92-5.69,1.48-6.19,1.4"/>
</svg>