<svg width="235" height="33" viewBox="0 0 235 33" fill="none" xmlns="http://www.w3.org/2000/svg">
<path d="M34.44 23V8.94H37.16V23H34.44ZM36.44 23V20.6H44.22V23H36.44ZM36.44 16.98V14.66H43.52V16.98H36.44ZM36.44 11.34V8.94H44.12V11.34H36.44ZM50.6978 23L45.1578 8.94H48.0978L52.3778 20.32H51.2378L55.5578 8.94H58.4578L52.8578 23H50.6978ZM57.4234 23L63.0834 8.94H65.3034L70.9434 23H68.0434L63.6834 11.46H64.6834L60.2634 23H57.4234ZM60.4234 20.38V18.1H67.9834V20.38H60.4234ZM72.6041 23V8.94H75.3241V23H72.6041ZM74.6041 23V20.58H81.7641V23H74.6041ZM88.7691 23.2C87.6624 23.2 86.6757 22.96 85.8091 22.48C84.9557 21.9867 84.2824 21.3133 83.7891 20.46C83.2957 19.6067 83.0491 18.64 83.0491 17.56V8.94H85.7691V17.64C85.7691 18.2667 85.8957 18.8067 86.1491 19.26C86.4157 19.7133 86.7757 20.0667 87.2291 20.32C87.6957 20.56 88.2091 20.68 88.7691 20.68C89.3424 20.68 89.8491 20.56 90.2891 20.32C90.7291 20.0667 91.0757 19.7133 91.3291 19.26C91.5957 18.8067 91.7291 18.2733 91.7291 17.66V8.94H94.4691V17.58C94.4691 18.66 94.2224 19.6267 93.7291 20.48C93.2357 21.32 92.5624 21.9867 91.7091 22.48C90.8691 22.96 89.8891 23.2 88.7691 23.2ZM95.607 23L101.267 8.94H103.487L109.127 23H106.227L101.867 11.46H102.867L98.447 23H95.607ZM98.607 20.38V18.1H106.167V20.38H98.607ZM112.588 23V9.24H115.328V23H112.588ZM108.108 11.36V8.94H119.808V11.36H108.108ZM121.686 23V8.94H124.406V23H121.686ZM123.686 23V20.6H131.466V23H123.686ZM123.686 16.98V14.66H130.766V16.98H123.686ZM123.686 11.34V8.94H131.366V11.34H123.686Z" fill="white"/>
<g clip-path="url(#clip0_56_34)">
<path d="M5.05681 24.7379V16.9216C5.05681 16.4644 5.46505 16.0927 5.96864 16.0927H14.8367C15.4565 16.0927 15.8946 15.5471 15.7068 15.0103L15.1436 13.4028C15.0215 13.0577 14.6698 12.8246 14.2735 12.8246H5.97162C5.46803 12.8246 5.05979 12.453 5.05979 11.9958V5.12925C5.05979 4.67207 5.46803 4.30043 5.97162 4.30043H19.5717C20.0753 4.30043 20.4835 3.92879 20.4835 3.47161V1.8464C20.4835 1.38922 20.0753 1.01758 19.5717 1.01758H2.2468C1.7432 1.01758 1.33496 1.38922 1.33496 1.8464V28.0237C1.33496 28.4809 1.7432 28.8525 2.2468 28.8525H18.9906C19.6104 28.8525 20.1438 28.8525 19.7356 27.9263L19.086 26.0062C18.9638 25.6611 18.8208 25.5667 18.4215 25.5667H5.97162C5.46803 25.5667 5.05979 25.1951 5.05979 24.7379H5.05681Z" fill="url(#paint0_linear_56_34)"/>
<path d="M27.9928 1.01758H25.8473C25.6626 1.01758 25.3616 1.10901 24.9712 1.28009C24.706 1.39807 24.4974 1.62814 24.408 1.90834L17.5156 23.4814C18.0043 23.5197 18.2368 23.6318 18.2636 23.738L18.496 24.6494C18.2308 23.5669 17.9239 22.4313 17.5752 21.2397L13.3677 5.22069C13.3319 5.09976 13.2216 5.01422 13.0965 5.01422H10.5845C10.3938 5.01422 10.2567 5.20299 10.3133 5.38882L17.1551 28.6549C17.1938 28.7729 17.3011 28.8555 17.4262 28.8555H19.673C20.0455 28.8555 20.3733 28.6136 20.4895 28.2537L28.8093 2.15021C28.9881 1.58979 28.5739 1.01758 27.9928 1.01758Z" fill="url(#paint1_linear_56_34)"/>
<path d="M0.19663 2.67808C0.0237985 1.8817 0.327744 1.07353 0.992253 0.5898C1.76702 0.0234859 2.68779 0.153266 2.83381 0.176863" stroke="url(#paint2_linear_56_34)" stroke-miterlimit="10"/>
<path d="M28.8033 26.3247C28.9761 27.1211 28.6722 27.9263 28.0107 28.413C27.2329 28.9793 26.3151 28.8495 26.1661 28.8259" stroke="url(#paint3_linear_56_34)" stroke-miterlimit="10"/>
</g>
<defs>
<linearGradient id="paint0_linear_56_34" x1="3.57582" y1="2.36257" x2="17.3499" y2="26.4644" gradientUnits="userSpaceOnUse">
<stop stop-color="#088BA8"/>
<stop offset="0.41" stop-color="#048686"/>
<stop offset="1" stop-color="#007F50"/>
</linearGradient>
<linearGradient id="paint1_linear_56_34" x1="10.6411" y1="14.9336" x2="28.4994" y2="14.9336" gradientUnits="userSpaceOnUse">
<stop stop-color="#088BA8"/>
<stop offset="0.41" stop-color="#048686"/>
<stop offset="1" stop-color="#007F50"/>
</linearGradient>
<linearGradient id="paint2_linear_56_34" x1="-4.03673e-05" y1="1.35373" x2="2.85765" y2="1.35373" gradientUnits="userSpaceOnUse">
<stop stop-color="#088BA8"/>
<stop offset="0.41" stop-color="#048686"/>
<stop offset="1" stop-color="#007F50"/>
</linearGradient>
<linearGradient id="paint3_linear_56_34" x1="26.1423" y1="27.6461" x2="29" y2="27.6461" gradientUnits="userSpaceOnUse">
<stop stop-color="#088BA8"/>
<stop offset="0.41" stop-color="#048686"/>
<stop offset="1" stop-color="#007F50"/>
</linearGradient>
<clipPath id="clip0_56_34">
<rect width="29" height="29" fill="white"/>
</clipPath>
</defs>
</svg>
